<?xml version="1.0" encoding="UTF-8" standalone="no"?>
<!-- Created with Inkscape (http://www.inkscape.org/) -->

<svg
   width="210mm"
   height="297mm"
   viewBox="0 0 210 297"
   version="1.1"
   id="svg1"
   inkscape:version="1.4 (86a8ad7, 2024-10-11)"
   sodipodi:docname="logosvg.svg"
   xmlns:inkscape="http://www.inkscape.org/namespaces/inkscape"
   xmlns:sodipodi="http://sodipodi.sourceforge.net/DTD/sodipodi-0.dtd"
   xmlns="http://www.w3.org/2000/svg"
   xmlns:svg="http://www.w3.org/2000/svg">
  <sodipodi:namedview
     id="namedview1"
     pagecolor="#ffffff"
     bordercolor="#000000"
     borderopacity="0.25"
     inkscape:showpageshadow="2"
     inkscape:pageopacity="0.0"
     inkscape:pagecheckerboard="0"
     inkscape:deskcolor="#d1d1d1"
     inkscape:document-units="mm"
     inkscape:zoom="0.98528339"
     inkscape:cx="-349.13813"
     inkscape:cy="528.27441"
     inkscape:window-width="1366"
     inkscape:window-height="697"
     inkscape:window-x="-8"
     inkscape:window-y="-8"
     inkscape:window-maximized="1"
     inkscape:current-layer="layer1" />
  <defs
     id="defs1">
    <linearGradient
       id="d"
       x1="150.84626"
       x2="325.42652"
       y1="411.85963"
       y2="369.81819"
       gradientTransform="scale(0.85948352,1.1634894)"
       gradientUnits="userSpaceOnUse">
      <stop
         stop-color="#d3d102"
         offset="0"
         id="stop1" />
      <stop
         stop-color="#dcc903"
         offset=".5"
         id="stop2" />
      <stop
         stop-color="#ffa40b"
         offset="1"
         id="stop3" />
    </linearGradient>
    <linearGradient
       id="c"
       x1="257.97171"
       x2="485.74055"
       y1="348.07551"
       y2="131.63004"
       gradientTransform="scale(1.4361283,0.69631661)"
       gradientUnits="userSpaceOnUse">
      <stop
         stop-color="#ffba48"
         offset="0"
         id="stop4" />
      <stop
         stop-color="#feb334"
         offset=".5"
         id="stop5" />
      <stop
         stop-color="#ffa60e"
         offset="1"
         id="stop6" />
    </linearGradient>
    <linearGradient
       id="b"
       x1="1360.3393"
       x2="1366.3167"
       y1="246.64506"
       y2="31.041569"
       gradientTransform="scale(0.66684744,1.4995934)"
       gradientUnits="userSpaceOnUse">
      <stop
         stop-color="#fb9b10"
         offset="0"
         id="stop7" />
      <stop
         stop-color="#fb851b"
         offset=".5"
         id="stop8" />
      <stop
         stop-color="#fca00f"
         offset="1"
         id="stop9" />
    </linearGradient>
    <linearGradient
       id="a"
       x1="722.19394"
       x2="800.82157"
       y1="223.53941"
       y2="160.34165"
       gradientTransform="scale(1.2499654,0.80002214)"
       gradientUnits="userSpaceOnUse">
      <stop
         stop-color="#66750c"
         offset="0"
         id="stop13" />
      <stop
         stop-color="#1f9a04"
         offset=".3765"
         id="stop14" />
      <stop
         stop-color="#8cc403"
         offset="1"
         id="stop15" />
    </linearGradient>
  </defs>
  <g
     inkscape:label="Layer 1"
     inkscape:groupmode="layer"
     id="layer1">
    <rect
       style="fill:#ffffff;stroke-width:0.27668;opacity:0.6"
       id="rect1"
       width="121.37794"
       height="39.743217"
       x="-136.41591"
       y="103.38607"
       ry="13.932968"
       inkscape:export-filename="tajamangobglogo.png"
       inkscape:export-xdpi="300"
       inkscape:export-ydpi="300" />
    <g
       id="g1"
       transform="translate(-0.42459278,0.84302753)">
      <g
         id="g18"
         transform="matrix(0.02554096,0.00684368,-0.00684368,0.02554096,-66.027415,102.52982)"
         inkscape:export-filename="C:\Users\NUHAN\OneDrive\Desktop\tajamangologo.png"
         inkscape:export-xdpi="300"
         inkscape:export-ydpi="300">
        <path
           d="m 761.14,53.101 c 9.188,3.688 21.312,8.97 30.106,13.517 8.551,4.422 19.72,10.824 27.649,16.282 7.671,5.281 17.284,13.196 24.27,19.354 8.408,7.413 19.289,17.726 26.727,26.113 7.096,8.002 15.753,19.395 21.705,28.281 7.517,11.222 16.457,26.921 22.477,39.012 5.277,10.598 11.452,25.168 15.469,36.304 3.929,10.893 8.787,25.629 11.032,36.989 3.136,15.873 5.521,37.522 5.051,53.695 -0.613,21.086 -5.583,49.073 -11.105,69.432 -3.386,12.483 -9.798,28.596 -15.242,40.328 -5.246,11.304 -13.628,25.708 -20.174,36.312 -6.671,10.809 -15.934,25.051 -23.871,34.968 -10.315,12.885 -25.419,29.044 -37.707,40.064 -13.482,12.092 -33.198,26.209 -48.245,36.288 -11.017,7.379 -26.105,16.695 -37.937,22.679 -15.54,7.859 -37.125,16.644 -53.606,22.267 -16.615,5.669 -39.295,11.737 -56.493,15.257 -13.795,2.825 -32.465,5.126 -46.461,6.677 -18.148,2.011 -42.433,4.191 -60.687,4.636 -18.334,0.446 -42.8,-0.626 -61.109,-1.686 -14.57,-0.844 -33.979,-2.435 -48.465,-4.214 -17.915,-2.201 -41.796,-5.577 -59.404,-9.545 -21.869,-4.928 -50.609,-13.462 -71.672,-21.134 -14.387,-5.239 -33.295,-13.119 -46.863,-20.215 -10.972,-5.738 -24.837,-14.784 -35.113,-21.692 -8.924,-5.998 -20.698,-14.232 -28.979,-21.091 -8.524,-7.06 -19.428,-17.087 -26.875,-25.275 -5.658,-6.222 -12.629,-15.066 -17.276,-22.075 -4.25,-6.41 -9.266,-15.407 -12.477,-22.395 -2.103,-4.577 -4.454,-10.894 -5.904,-15.718 -1.852,-6.163 -3.809,-14.555 -4.709,-20.927 -0.934,-6.616 -1.633,-15.56 -1.308,-22.234 0.209,-4.279 0.846,-10.028 2.093,-14.126 2.687,-8.83 8.709,-19.81 13.864,-27.466 4.346,-6.456 11.573,-14.014 16.977,-19.614 6.039,-6.257 14.594,-14.117 21.251,-19.711 6.31,-5.301 15.056,-11.989 21.867,-16.63 8.867,-6.043 21.556,-12.744 30.617,-18.491 7.286,-4.622 17.039,-10.758 23.957,-15.914 6.512,-4.852 14.829,-11.819 20.81,-17.312 4.942,-4.537 11.338,-10.824 15.743,-15.884 4.648,-5.338 9.873,-13.242 14.298,-18.766 4.815,-6.011 11.431,-13.872 16.54,-19.635 6.651,-7.503 15.699,-17.359 22.826,-24.41 8.82,-8.727 21.083,-19.858 30.555,-27.872 7.958,-6.733 19.003,-15.184 27.317,-21.473 8.104,-6.13 19.06,-14.106 27.386,-19.932 6.658,-4.659 15.622,-10.753 22.467,-15.133 9.216,-5.896 21.661,-13.527 31.203,-18.881 6.506,-3.65 15.354,-8.209 22.048,-11.502 7.582,-3.729 17.847,-8.378 25.567,-11.813 6.625,-2.948 15.412,-7.015 22.216,-9.521 8.259,-3.042 19.546,-6.319 28.035,-8.64 8.716,-2.383 20.427,-5.256 29.291,-7.004 8.59,-1.694 20.149,-3.399 28.834,-4.505 5.322,-0.678 12.439,-1.477 17.795,-1.802 7.758,-0.471 18.134,-0.623 25.904,-0.45 6.9,0.153 16.095,0.714 22.963,1.397 8.216,0.816 19.128,2.36 27.257,3.806 5.043,0.897 11.689,2.492 16.699,3.56 v 0 c -0.022,0.029 14.659,4.998 20.816,7.47 z"
           fill="#ffa40b"
           fill-rule="evenodd"
           stroke="#ffa40b"
           stroke-linecap="round"
           stroke-linejoin="round"
           id="path1" />
        <path
           d="m 215.05,309.81 c 2.041,-1.142 4.854,-2.494 6.934,-3.562 0.003,0.002 24.562,15.7 33.265,24.533 12.271,12.456 25.135,32.362 33.359,47.792 10.239,19.207 18.385,47.344 25.879,67.779 8.191,22.334 20.525,51.729 26.296,74.807 5.137,20.54 9.928,48.586 10.842,69.739 0.498,11.537 -1.495,26.903 -2.136,38.433 -0.002,0 -19.697,-3.078 -27.966,-5.184 -11.762,-2.996 -27.125,-8.247 -38.401,-12.739 -15.035,-5.989 -34.693,-15.071 -48.776,-23.044 -13.172,-7.458 -29.938,-18.818 -41.981,-27.987 -9.082,-6.916 -20.835,-16.684 -28.854,-24.809 -7.789,-7.892 -17.372,-19.251 -23.742,-28.328 -5.207,-7.42 -11.603,-17.785 -15.267,-26.077 -2.962,-6.703 -5.172,-16.299 -7.388,-23.284 -0.869,-4.338 -2.405,-10.064 -2.898,-14.461 -0.96,-8.576 -1.887,-20.265 -0.388,-28.763 0.78,-4.425 3.155,-10.02 4.994,-14.119 2.852,-6.355 7.32,-14.574 11.353,-20.252 4.12,-5.801 10.704,-12.714 15.721,-17.759 10.643,-10.7 25.645,-24.245 37.785,-33.211 8.914,-6.583 21.698,-14.093 31.369,-19.504 m -97.936,148.07 z"
           fill="url(#d)"
           fill-rule="evenodd"
           id="path3"
           style="fill:url(#d)" />
        <path
           d="m 221.98,306.25 v 0 M 117.11,457.88 v 0 m 232.38,171.45 v 0"
           fill="none"
           stroke="#d0d500"
           stroke-linecap="round"
           stroke-linejoin="round"
           id="path4" />
        <path
           d="m 382.35,202.06 c 15.386,-15.949 37.15,-36.13 54.781,-49.556 15.384,-11.714 37.383,-25.364 54.315,-34.701 10.946,-6.036 25.963,-13.392 37.611,-17.925 18.653,-7.259 44.231,-15.529 63.925,-19.1 17.994,-3.262 42.52,-4.143 60.806,-4.287 19.089,-0.151 45.442,-2.58 63.535,3.508 3.726,1.253 9.365,3.207 11.304,6.626 3.238,5.711 2.064,16.353 -1.559,21.828 -5.923,8.951 -22.722,10.575 -32.742,14.422 -23.269,8.934 -55.486,17.438 -79.126,25.336 -19.257,6.434 -45.482,13.728 -63.925,22.218 -16.087,7.405 -35.749,20.726 -51.062,29.623 -14.772,8.583 -34.254,20.405 -49.222,28.642 -12.918,7.109 -29.662,17.875 -43.597,22.691 -7.968,2.754 -19.114,5.236 -27.536,5.609 -4.144,0.184 -10.024,0.511 -13.768,-1.274 -2.295,-1.095 -4.739,-3.729 -6.119,-5.864 -1.534,-2.376 -2.716,-6.101 -3.102,-8.902 -0.347,-2.526 -0.21,-6.033 0.492,-8.484 0.273,-0.951 0.945,-2.115 1.476,-2.951 0.027,-0.049 15.984,-19.654 23.513,-27.459 z"
           fill="url(#c)"
           fill-rule="evenodd"
           id="path6"
           style="fill:url(#c)" />
        <path
           d="m 921.28,430.04 c -5.531,12.398 -15.497,27.629 -22.138,39.47 0,-0.002 4.222,-10.143 5.722,-14.602 5.451,-16.211 11.326,-38.308 14.799,-55.054 3.694,-17.809 7.679,-41.831 8.801,-59.984 1.032,-16.699 0.777,-39.139 -1.162,-55.758 -0.968,-8.299 -3.014,-19.327 -5.517,-27.298 -3.665,-11.667 -11.136,-26.285 -16.528,-37.261 -7.435,-15.136 -17.54,-35.326 -26.868,-49.374 C 870.313,158.017 857.78,143.021 848.116,132.08 838.275,120.938 824.408,106.713 813.417,96.705 806.84,90.716 797.321,83.6 790.504,77.887 c -8.944,-7.495 -29.55,-25.292 -29.55,-25.292 9.443,3.063 21.398,8.929 30.221,13.479 9.77,5.037 22.573,12.288 31.543,18.641 10.126,7.171 22.665,18.073 31.614,26.668 7.914,7.602 17.842,18.409 24.734,26.949 7.007,8.682 15.667,20.838 21.465,30.37 5.976,9.823 12.784,23.604 17.607,34.041 5.994,12.967 14.017,30.371 17.955,44.102 5.095,17.771 9.67,42.295 10.194,60.775 0.628,22.137 -3.525,51.742 -8.439,73.336 -3.448,15.154 -10.236,34.89 -16.568,49.084 z"
           fill="url(#b)"
           fill-rule="evenodd"
           id="path9"
           style="fill:url(#b)" />
        <path
           d="m 899.14,469.51 v 0"
           fill="none"
           stroke="#f87b1e"
           stroke-linecap="round"
           stroke-linejoin="round"
           id="path10" />
        <path
           d="m 890.74,167.16 c 5.936,5.606 12.131,14.983 15.301,22.508 1.169,2.773 3.805,7.135 2.329,9.757 -0.767,1.363 -3.215,2.292 -4.768,2.107 -2.436,-0.29 -4.584,-3.485 -6.209,-5.322 -3.417,-3.865 -6.761,-9.981 -9.203,-14.525 -1.557,-2.898 -3.879,-6.758 -4.546,-9.98 -0.424,-2.052 -1.556,-5.582 0,-6.985 0.742,-0.668 2.329,-0.077 3.326,-0.111 v 0 c 0.013,-0.014 2.778,1.613 3.77,2.551 z"
           fill="#c3611a"
           fill-rule="evenodd"
           stroke="#c3611a"
           stroke-linecap="round"
           stroke-linejoin="round"
           id="path11" />
        <path
           d="m 971.14,181.18 c -9.006,-6.944 -21.014,-16.204 -30.021,-23.148 -1.438,1.329 -4.792,4.43 -4.792,4.43 8.409,7.488 28.029,24.955 28.032,24.958 2.034,-1.872 6.781,-6.239 6.781,-6.24 z"
           fill="#129400"
           fill-rule="evenodd"
           id="path12" />
        <path
           d="m 936.33,162.46 v 0 m 34.813,18.718 v 0 m -6.781,6.24 v 0 m -23.24,-29.388 v 0 m 30.021,23.148 v 0"
           fill="none"
           stroke="#129400"
           stroke-linecap="round"
           stroke-linejoin="round"
           id="path13" />
        <path
           d="m 897.26,189.4 c 0.084,0.113 0.319,0.343 0.319,0.343 0.006,0.003 45.133,-21.585 64.376,-31.04 5.845,-2.872 13.41,-7.197 19.426,-9.69 5.648,-2.34 13.386,-5.011 19.318,-6.484 3.465,-0.861 8.164,-1.781 11.725,-2.027 -10e-4,-0.001 -4.201,-10.785 -6.321,-15.265 -1.077,-2.278 -2.498,-5.348 -3.917,-7.43 -0.988,-1.45 -2.329,-3.478 -3.783,-4.459 -0.613,-0.413 -1.586,-1.048 -2.304,-0.871 -0.001,10e-4 -8.051,8.105 -11.881,11.139 -8.618,6.826 -21.409,14.142 -30.801,19.858 -9.559,5.818 -22.581,13.114 -32.358,18.559 -8.761,4.879 -21.264,10.045 -29.404,15.903 l 1.412,3.441 c 0.937,2.549 2.573,5.843 4.193,8.023 0,0 0.186,0.298 0.319,0.343 z"
           fill="url(#a)"
           fill-rule="evenodd"
           id="path15"
           style="fill:url(#a)" />
        <path
           d="m 1113.3,601.68 c 1.734,8.317 1.281,19.783 1.753,28.265 10e-4,-0.001 6.048,-11.509 7.36,-16.874 6.692,-27.355 3.169,-65.758 1.367,-93.862 -2.44,-38.062 -10.936,-88.41 -18.681,-125.76 -6.002,-28.94 -13.137,-68.259 -25.2,-95.241 -14.954,-33.45 -37.518,-81.024 -67.881,-101.53 -13.03,-8.801 -35.08,-16.524 -50.565,-13.794 -5.733,4.236 -10.673,12.483 -14.446,18.321 -4.348,6.727 -9.157,16.327 -12.345,23.675 -3.46,7.976 -7.695,18.863 -9.578,27.351 -2.401,10.827 -3.853,25.721 -3.46,36.805 0.459,12.915 3.522,30.087 7.235,42.466 5.152,17.176 15.499,39.012 24.501,54.52 11.106,19.137 29.545,42.407 43.682,59.429 11.71,14.1 28.789,31.639 41.65,44.698 7.7,7.819 19.026,17.206 26.31,25.413 10.436,11.756 23.868,28.143 31.44,41.919 6.835,12.437 13.962,30.305 16.858,44.197 M 961.45,182.888 c -0.053,0.01 -0.118,0.048 -0.161,0.081 z"
           fill="#129400"
           fill-rule="evenodd"
           id="path16" />
        <path
           d="m 1122.4,613.07 c 6.692,-27.355 3.169,-65.758 1.367,-93.862 -2.44,-38.062 -10.936,-88.41 -18.681,-125.76 -6.002,-28.94 -13.137,-68.259 -25.2,-95.241 -14.954,-33.45 -37.518,-81.024 -67.881,-101.53"
           fill="none"
           stroke="#129400"
           stroke-linecap="round"
           stroke-linejoin="round"
           id="path17" />
        <path
           d="m 1120.1,612.92 c -0.708,5.263 -3.581,11.864 -5.003,16.981 0,-0.002 10.126,-14.98 13.632,-21.871 8.137,-15.994 16.595,-38.552 21.57,-55.795 4.583,-15.884 8.558,-37.669 10.641,-54.069 3.156,-24.847 4.844,-58.331 4.383,-83.373 -0.458,-24.916 -3.611,-58.108 -7.403,-82.738 -2.195,-14.258 -5.991,-33.178 -10.016,-47.031 -3.561,-12.259 -9.229,-28.405 -14.746,-39.918 -6.325,-13.198 -15.544,-30.769 -25.183,-41.781 -7.798,-8.91 -20.344,-19.019 -30.621,-24.898 -5.949,-3.403 -14.702,-6.383 -21.274,-8.328 -4.36,-1.29 -10.305,-2.654 -14.825,-3.144 -6.298,-0.683 -14.8,-0.5 -21.115,0 -7.554,0.597 -17.569,2.254 -24.933,4.043 -8.937,2.171 -20.654,5.995 -29.111,9.611 -1.636,0.699 -5.292,2.68 -5.292,2.68 8.232,6.185 20.33,12.916 28.229,19.52 8.41,7.032 18.662,17.565 25.75,25.928 12.873,15.19 28.487,36.885 38.259,54.234 7.199,12.782 14.869,30.895 19.83,44.702 4.145,11.536 8.192,27.415 11.092,39.325 6.5,26.704 13.051,62.794 17.901,89.846 4.803,26.789 11.378,62.529 14.29,89.589 2.138,19.866 6.613,46.684 3.945,66.487 z"
           fill="#129400"
           fill-rule="evenodd"
           id="path18" />
      </g>
      <text
         xml:space="preserve"
         style="font-style:normal;font-variant:normal;font-weight:normal;font-stretch:normal;font-size:21.6759px;line-height:1.2;font-family:Gabriola;-inkscape-font-specification:'Gabriola, Normal';font-variant-ligatures:normal;font-variant-caps:normal;font-variant-numeric:normal;font-variant-east-asian:normal;text-align:center;text-decoration-color:#000000;letter-spacing:0px;word-spacing:0px;writing-mode:lr-tb;direction:ltr;text-anchor:middle;fill:#000000;stroke-width:0.737323"
         x="-75.408188"
         y="130.04079"
         id="text1"><tspan
           sodipodi:role="line"
           id="tspan1"
           style="font-style:normal;font-variant:normal;font-weight:normal;font-stretch:normal;font-size:21.6759px;font-family:Gabriola;-inkscape-font-specification:'Gabriola, Normal';font-variant-ligatures:normal;font-variant-caps:normal;font-variant-numeric:normal;font-variant-east-asian:normal;stroke-width:0.737323"
           x="-75.408188"
           y="130.04079">TajaMango.com</tspan></text>
    </g>
  </g>
</svg>
